<?xml version="1.0" encoding="UTF-8"?>
<svg xmlns="http://www.w3.org/2000/svg" viewBox="0 0 1200 630" width="1200" height="630" fill="none">
  <!-- Background -->
  <rect width="1200" height="630" fill="#fffdf5"/>

  <!-- Decorative side band -->
  <rect x="0" y="0" width="20" height="630" fill="#2F5D2F"/>
  <rect x="0" y="600" width="1200" height="30" fill="#F4B128"/>

  <!-- Soft mango silhouettes (decorative) -->
  <g opacity="0.05">
    <ellipse cx="1100" cy="100" rx="160" ry="180" fill="#F4B128"/>
    <ellipse cx="150" cy="540" rx="120" ry="140" fill="#2F5D2F"/>
  </g>

  <!-- Logo mark (top-left) -->
  <g transform="translate(60,60) scale(0.55)">
    <g transform="translate(180,120)">
      <path d="M180 420L310 120C320 95 355 95 365 120L500 420H435L395 330H285L245 420H180Z" fill="#2F5D2F"/>
      <path d="M295 320L340 250L385 320" stroke="white" stroke-width="14" stroke-linecap="round" stroke-linejoin="round" fill="none"/>
      <rect x="320" y="340" width="18" height="18" fill="white"/>
      <rect x="345" y="340" width="18" height="18" fill="white"/>
      <rect x="320" y="365" width="18" height="18" fill="white"/>
      <rect x="345" y="365" width="18" height="18" fill="white"/>
      <path d="M430 145C510 140 570 210 565 300C562 355 535 390 542 430C548 465 575 480 595 475C585 500 560 515 530 510C465 500 410 435 408 345C406 250 350 185 430 145Z" fill="#F4B128"/>
      <path d="M455 115C515 70 595 85 640 130C575 145 515 145 455 115Z" fill="#4C8C2B"/>
      <path d="M445 105C440 85 445 65 460 50" stroke="#4C8C2B" stroke-width="10" stroke-linecap="round" fill="none"/>
    </g>
  </g>

  <!-- Brand wordmark beside logo -->
  <text x="360" y="200" font-family="Georgia, serif" font-size="100" font-weight="700">
    <tspan fill="#F4B128">Aam</tspan><tspan fill="#2F5D2F">Ghor</tspan>
  </text>
  <text x="360" y="245" font-family="'Hind Siliguri', sans-serif" font-size="32" font-weight="700" fill="#2F5D2F">আমঘর — রাজশাহী</text>

  <!-- Tagline -->
  <text x="60" y="380" font-family="'Hind Siliguri', sans-serif" font-size="48" font-weight="700" fill="#1b4332">
    রাজশাহীর ১০০% গাছে পাকা আম
  </text>
  <text x="60" y="430" font-family="'Hind Siliguri', sans-serif" font-size="28" font-weight="500" fill="#4C8C2B">
    কার্বাইড মুক্ত • বাগান থেকে সরাসরি • হোম ডেলিভারি
  </text>

  <!-- Feature pills -->
  <g transform="translate(60,470)">
    <rect x="0" y="0" width="220" height="56" rx="28" fill="#fff3cd" stroke="#F4B128" stroke-width="2"/>
    <text x="110" y="36" font-family="'Hind Siliguri', sans-serif" font-size="22" font-weight="700" fill="#2F5D2F" text-anchor="middle">🥭 গোপালভোগ</text>

    <rect x="240" y="0" width="220" height="56" rx="28" fill="#fff3cd" stroke="#F4B128" stroke-width="2"/>
    <text x="350" y="36" font-family="'Hind Siliguri', sans-serif" font-size="22" font-weight="700" fill="#2F5D2F" text-anchor="middle">🥭 হিমসাগর</text>

    <rect x="480" y="0" width="220" height="56" rx="28" fill="#fff3cd" stroke="#F4B128" stroke-width="2"/>
    <text x="590" y="36" font-family="'Hind Siliguri', sans-serif" font-size="22" font-weight="700" fill="#2F5D2F" text-anchor="middle">🥭 ল্যাংড়া</text>
  </g>

  <!-- Phone + Site -->
  <text x="60" y="580" font-family="'Hind Siliguri', sans-serif" font-size="24" font-weight="700" fill="#2F5D2F">
    📞 01329335577  •  aamghor.com  •  সারা বাংলাদেশে ডেলিভারি
  </text>

  <!-- Bottom bar text -->
  <text x="600" y="622" font-family="Georgia, serif" font-size="16" font-weight="700"
        fill="#1b4332" text-anchor="middle">AamGhor — Taste of Rajshahi</text>
</svg>
